<?xml version="1.0" encoding="UTF-8"?>
<svg width="64" height="64" viewBox="0 0 64 64" xmlns="http://www.w3.org/2000/svg">
  <defs>
    <linearGradient id="barBlue" x1="0" y1="0" x2="0" y2="1">
      <stop offset="0%" stop-color="#6B8DD6"/>
      <stop offset="100%" stop-color="#5470C6"/>
    </linearGradient>
    <linearGradient id="barGreen" x1="0" y1="0" x2="0" y2="1">
      <stop offset="0%" stop-color="#91CC75"/>
      <stop offset="100%" stop-color="#73B76A"/>
    </linearGradient>
    <linearGradient id="barYellow" x1="0" y1="0" x2="0" y2="1">
      <stop offset="0%" stop-color="#FAC858"/>
      <stop offset="100%" stop-color="#F2B241"/>
    </linearGradient>
    <linearGradient id="barRed" x1="0" y1="0" x2="0" y2="1">
      <stop offset="0%" stop-color="#EE6666"/>
      <stop offset="100%" stop-color="#D85858"/>
    </linearGradient>
    <filter id="shadow" x="-10%" y="-10%" width="130%" height="130%">
      <feDropShadow dx="0" dy="1" stdDeviation="1.2" flood-color="#1A1D210F"/>
    </filter>
  </defs>
  <!-- Background (transparent for Power BI) -->
  <rect width="64" height="64" fill="#ffffff" fill-opacity="0"/>
  <!-- Ground line -->
  <rect x="10" y="50" width="44" height="2.5" rx="1.25" fill="#D0D5DD"/>
  <!-- Bars -->
  <g filter="url(#shadow)">
    <rect x="14" y="36" width="8" height="14" rx="2" fill="url(#barBlue)"/>
    <rect x="26" y="28" width="8" height="22" rx="2" fill="url(#barGreen)"/>
    <rect x="38" y="20" width="8" height="30" rx="2" fill="url(#barYellow)"/>
    <rect x="50" y="24" width="8" height="26" rx="2" fill="url(#barRed)"/>
  </g>
  <!-- Optional subtle axis tick marks -->
  <g stroke="#D0D5DD" stroke-width="1" stroke-linecap="round">
    <line x1="10" y1="36" x2="12" y2="36"/>
    <line x1="10" y1="28" x2="12" y2="28"/>
    <line x1="10" y1="20" x2="12" y2="20"/>
  </g>
</svg>
